<?xml version="1.0" standalone="no"?>
<!DOCTYPE svg PUBLIC "-//W3C//DTD SVG 20010904//EN"
 "http://www.w3.org/TR/2001/REC-SVG-20010904/DTD/svg10.dtd">
<svg version="1.0" xmlns="http://www.w3.org/2000/svg"
 width="708.000000pt" height="708.000000pt" viewBox="0 0 708.000000 708.000000"
 preserveAspectRatio="xMidYMid meet">
<metadata>
Created by potrace 1.14, written by Peter Selinger 2001-2017
</metadata>
<g transform="translate(0.000000,708.000000) scale(0.100000,-0.100000)"
fill="#000000" stroke="none">
<path d="M3406 6425 c-14 -11 -16 -70 -3 -92 4 -6 3 -14 -3 -18 -6 -4 -7 -11
-4 -17 3 -5 8 -32 9 -60 2 -39 0 -48 -11 -44 -8 3 -14 2 -14 -2 0 -4 -9 -8
-20 -9 -15 -1 -27 12 -45 50 -28 56 -47 89 -56 97 -3 3 -8 13 -12 23 -8 23
-37 33 -47 18 -4 -7 -9 -12 -11 -10 -12 7 -49 -15 -50 -29 -1 -18 -1 -19 5
-55 3 -12 5 -32 5 -45 1 -13 5 -20 11 -17 7 4 7 -2 0 -19 -5 -14 -6 -27 -2
-30 4 -3 9 -20 10 -38 2 -27 -3 -37 -26 -50 -28 -17 -29 -17 -40 7 -7 14 -16
25 -22 25 -6 0 -8 5 -5 10 3 6 1 10 -6 10 -7 0 -9 3 -6 6 4 4 -1 14 -11 23 -9
9 -22 25 -28 36 -12 22 -44 33 -44 16 0 -6 -9 -20 -19 -30 -19 -19 -19 -22 -3
-60 9 -21 20 -37 24 -34 5 2 8 -5 8 -16 0 -12 5 -21 11 -21 5 0 8 -3 6 -7 -2
-5 4 -21 14 -38 10 -16 26 -47 35 -67 10 -23 21 -35 28 -31 6 3 8 3 4 -2 -7
-8 66 -158 90 -183 7 -8 10 -17 7 -22 -3 -4 2 -13 10 -20 23 -19 38 17 -148
-370 -32 -69 -79 -165 -102 -215 -23 -49 -68 -144 -100 -210 -129 -269 -239
-500 -310 -650 -77 -161 -151 -317 -220 -460 -37 -77 -87 -180 -110 -230 -111
-235 -239 -504 -305 -640 -40 -82 -89 -186 -110 -230 -53 -113 -170 -357 -241
-505 -138 -287 -217 -455 -214 -458 1 -2 27 11 56 29 59 35 282 145 398 198
93 41 294 122 297 118 2 -2 -163 -117 -241 -167 -141 -92 -604 -406 -617 -419
-16 -16 -45 -70 -268 -506 -68 -132 -140 -273 -162 -314 -21 -41 -36 -76 -34
-78 2 -2 71 28 152 67 82 40 178 86 214 103 36 16 133 63 215 102 83 40 191
91 240 115 50 23 142 67 205 98 63 30 184 88 269 128 84 41 154 74 156 74 2 0
95 45 208 99 112 55 224 108 248 119 24 11 96 45 159 76 l114 55 2 123 c1 117
10 260 18 303 2 11 7 45 12 75 4 30 8 57 9 60 6 19 16 76 15 80 -3 14 75 220
102 269 48 85 153 184 224 211 110 41 287 38 383 -7 117 -54 225 -199 292
-393 24 -68 65 -238 74 -304 3 -27 8 -52 10 -55 1 -3 6 -42 10 -86 4 -44 8
-96 10 -115 2 -19 5 -83 6 -142 l3 -107 31 -12 c16 -7 122 -53 235 -102 113
-49 219 -95 235 -102 17 -7 46 -20 65 -28 19 -8 141 -61 270 -117 129 -56 253
-110 275 -120 22 -10 162 -70 310 -135 149 -64 288 -125 310 -135 22 -10 78
-35 125 -55 88 -38 126 -54 183 -80 18 -8 71 -30 118 -50 46 -20 97 -42 114
-50 16 -7 31 -12 33 -11 1 2 -64 124 -146 272 -81 148 -151 276 -155 284 -4 8
-15 29 -25 45 -10 17 -32 55 -49 85 -24 45 -192 348 -323 585 -228 411 -449
811 -473 855 -16 30 -47 84 -67 120 -21 36 -52 92 -69 125 -18 33 -42 78 -55
100 -62 111 -98 177 -276 500 -106 193 -202 364 -212 380 -10 17 -22 39 -27
50 -5 11 -67 124 -138 252 l-129 232 -80 -52 c-303 -199 -538 -333 -634 -362
-25 -7 -25 -7 -5 11 11 11 142 120 290 244 149 123 275 229 281 235 7 5 29 24
50 42 22 17 49 40 61 51 l23 19 -121 309 c-373 952 -347 881 -328 895 14 10
17 23 13 73 -4 56 -10 154 -18 293 -1 29 -5 56 -9 59 -3 3 -2 16 3 29 5 13 6
26 3 29 -3 3 -7 31 -9 62 -2 31 -5 59 -8 61 -2 2 -20 5 -40 6 -20 1 -36 5 -36
9 0 4 -10 7 -23 6 -21 -2 -22 -6 -21 -87 1 -102 -1 -109 -28 -107 -16 1 -26
16 -46 71 -14 39 -29 72 -34 73 -4 2 -8 12 -8 22 0 10 -6 22 -12 27 -18 11
-115 10 -132 -2z"/>
</g>
</svg>
